<svg width="375" height="173" viewBox="0 0 375 173" fill="none" xmlns="http://www.w3.org/2000/svg">
<g clip-path="url(#clip0)">
<path d="M374.5 103.4L353.667 114.915C332.833 126.646 291.167 131.303 249.5 128.6C207.833 125.897 244.667 142.503 203 122.5C161.333 102.497 117.5 91.4997 81.5 91.9997C45.5 92.4997 -0.5 103 -0.5 103V172.6H20.3333C41.1667 172.6 82.8333 172.6 124.5 172.6C166.167 172.6 207.833 172.6 249.5 172.6C291.167 172.6 332.833 172.6 353.667 172.6H374.5V103.4Z" fill="#7E85F9" fill-opacity="0.22"/>
<path d="M0 103.8L20.8333 115.315C41.6667 127.047 83.3333 131.703 125 129C166.667 126.297 208.333 115.153 250 95.15C291.667 75.1469 322 61.5001 344 56.0001C366 50.5001 375 51.9 375 51.9V173H354.167C333.333 173 291.667 173 250 173C208.333 173 166.667 173 125 173C83.3333 173 41.6667 173 20.8333 173H0V103.8Z" fill="#7E85F9"/>
</g>
<defs>
<clipPath id="clip0">
<rect width="375" height="173" fill="white"/>
</clipPath>
</defs>
</svg>
